{"title":"Pizza {2014} - Hindi Movies -  HDCAM - x264 - 1CDRip - AAC - Coo","uid":10626082,"size":444118504,"categoryP":"video","categoryS":"movies","magnet":"?xt=urn:btih:17dd78cac3c01983c6975f0bdb405a03cbf385be&amp;dn=Pizza+%7B2014%7D+-+Hindi+Movies+-++HDCAM+-+x264+-+1CDRip+-+AAC+-+Coo&amp;tr=udp%3A%2F%2Ftracker.openbittorrent.com%3A80&amp;tr=udp%3A%2F%2Fopen.demonii.com%3A1337&amp;tr=udp%3A%2F%2Ftracker.coppersurfer.tk%3A6969&amp;tr=udp%3A%2F%2Fexodus.desync.com%3A6969","seeders":6,"leechers":1,"uploader":"inovai","files":15,"time":1406233928,"description":"Screenshots:\n &lt;a href=&quot;\nhttp://img.primetimeshow.in/share.php?id=DF22_53D14FA6&quot; rel=&quot;nofollow&quot; target=&quot;_NEW&quot;&gt;\nhttp://img.primetimeshow.in/share.php?id=DF22_53D14FA6&lt;/a&gt;\n &lt;a href=&quot;\nhttp://img.primetimeshow.in/share.php?id=76E1_53D14FA6&quot; rel=&quot;nofollow&quot; target=&quot;_NEW&quot;&gt;\nhttp://img.primetimeshow.in/share.php?id=76E1_53D14FA6&lt;/a&gt;\n &lt;a href=&quot;\nhttp://img.primetimeshow.in/share.php?id=649F_53D14FA6&quot; rel=&quot;nofollow&quot; target=&quot;_NEW&quot;&gt;\nhttp://img.primetimeshow.in/share.php?id=649F_53D14FA6&lt;/a&gt;\n &lt;a href=&quot;\nhttp://img.primetimeshow.in/share.php?id=12E0_53D14FA6&quot; rel=&quot;nofollow&quot; target=&quot;_NEW&quot;&gt;\nhttp://img.primetimeshow.in/share.php?id=12E0_53D14FA6&lt;/a&gt;\n\nGeneral info:\n\nComplete name : Pizza {2014} - Hindi Movies - HDCAMRip - x264 - 1CD - AAC - Cool_Candy.mp4\n\nFormat : MPEG-4\nFormat profile : Base Media\nCodec ID : isom\nFile size : 421 MiB\nDuration : 1h 31mn\nOverall bit rate : 645 Kbps\nWriting application : Lavf55.19.104\n\n\nVideo\n\n\nID : 1\nFormat : AVC\nFormat/Info : Advanced Video Codec\nFormat profile : &lt;a class=&quot;__cf_email__&quot; href=&quot;/cdn-cgi/l/email-protection&quot; data-cfemail=&quot;83c1e2f0e6efeaede6c3cfb2adb0&quot;&gt;[email&amp;#160;protected]&lt;/a&gt;&lt;script cf-hash='f9e31' type=&quot;text/javascript&quot;&gt;\n/* &lt;![CDATA[ */!function(){try{var t=&quot;currentScript&quot;in document?document.currentScript:function(){for(var t=document.getElementsByTagName(&quot;script&quot;),e=t.length;e--;)if(t[e].getAttribute(&quot;cf-hash&quot;))return t[e]}();if(t&amp;&amp;t.previousSibling){var e,r,n,i,c=t.previousSibling,a=c.getAttribute(&quot;data-cfemail&quot;);if(a){for(e=&quot;&quot;,r=parseInt(a.substr(0,2),16),n=2;a.length-n;n+=2)i=parseInt(a.substr(n,2),16)^r,e+=String.fromCharCode(i);e=document.createTextNode(e),c.parentNode.replaceChild(e,c)}}}catch(u){}}();/* ]]&gt; */&lt;/script&gt;\nFormat settings, CABAC : No\nFormat settings, ReFrames : 2 frames\nCodec ID : avc1\nCodec ID/Info : Advanced Video Coding\nDuration : 1h 31mn\nBit rate : 512 Kbps\nWidth : 608 pixels\nHeight : 248 pixels\nDisplay aspect ratio : 2.40:1\nOriginal display aspect ratio : 2.40:1\nFrame rate mode : Constant\nFrame rate : 23.976 fps\nColor space : YUV\nChroma subsampling : 4:2:0\nBit depth : 8 bits\nScan type : Progressive\nBits/(Pixel*Frame) : 0.142\nStream size : 334 MiB (79%)\nWriting library : x264 core 140 r2377 1ca7bb9\nEncoding settings : Cool_Candy\n\n\n\nAudio\n\n\nID : 2\nFormat : AAC\nFormat/Info : Advanced Audio Codec\nFormat profile : LC\nCodec ID : 40\nDuration : 1h 31mn\nBit rate mode : Constant\nBit rate : 128 Kbps\nChannel(s) : 2 channels\nChannel positions : Front: L R\nSampling rate : 48.0 KHz\nCompression mode : Lossy\nStream size : 83.5 MiB (20%)\n\nSpecial thanks to Cool_candy!!\n\nPlease seed after download!!","torrent":{"xt":"urn:btih:17dd78cac3c01983c6975f0bdb405a03cbf385be","amp;dn":"Pizza+%7B2014%7D+-+Hindi+Movies+-++HDCAM+-+x264+-+1CDRip+-+AAC+-+Coo","amp;tr":["udp%3A%2F%2Ftracker.openbittorrent.com%3A80","udp%3A%2F%2Fopen.demonii.com%3A1337","udp%3A%2F%2Ftracker.coppersurfer.tk%3A6969","udp%3A%2F%2Fexodus.desync.com%3A6969"],"infoHash":"17dd78cac3c01983c6975f0bdb405a03cbf385be","infoHashBuffer":{"type":"Buffer","data":[23,221,120,202,195,192,25,131,198,151,95,11,219,64,90,3,203,243,133,190]},"announce":[],"urlList":[]}}